<mxfile host="Electron" agent="Mozilla/5.0 (Windows NT 10.0; Win64; x64) AppleWebKit/537.36 (KHTML, like Gecko) draw.io/24.7.8 Chrome/128.0.6613.36 Electron/32.0.1 Safari/537.36" version="24.7.8" pages="2">
  <diagram name="Page-1" id="9XjhYuoobyPGaZSTx79C">
    <mxGraphModel dx="1825" dy="1720" grid="1" gridSize="10" guides="1" tooltips="1" connect="1" arrows="1" fold="1" page="1" pageScale="1" pageWidth="850" pageHeight="1100" math="0" shadow="0">
      <root>
        <mxCell id="0" />
        <mxCell id="1" parent="0" />
        <mxCell id="3RRBa5ifjyfrIRJ2lBE--13" value="m" style="edgeStyle=orthogonalEdgeStyle;rounded=0;orthogonalLoop=1;jettySize=auto;html=1;entryX=1;entryY=0.5;entryDx=0;entryDy=0;" parent="1" source="3RRBa5ifjyfrIRJ2lBE--1" target="3RRBa5ifjyfrIRJ2lBE--12" edge="1">
          <mxGeometry relative="1" as="geometry" />
        </mxCell>
        <mxCell id="3RRBa5ifjyfrIRJ2lBE--24" style="edgeStyle=orthogonalEdgeStyle;rounded=0;orthogonalLoop=1;jettySize=auto;html=1;exitX=0.75;exitY=0;exitDx=0;exitDy=0;entryX=0.5;entryY=1;entryDx=0;entryDy=0;" parent="1" source="3RRBa5ifjyfrIRJ2lBE--1" target="3RRBa5ifjyfrIRJ2lBE--23" edge="1">
          <mxGeometry relative="1" as="geometry" />
        </mxCell>
        <mxCell id="3RRBa5ifjyfrIRJ2lBE--32" style="edgeStyle=orthogonalEdgeStyle;rounded=0;orthogonalLoop=1;jettySize=auto;html=1;entryX=1;entryY=0.75;entryDx=0;entryDy=0;entryPerimeter=0;" parent="1" source="3RRBa5ifjyfrIRJ2lBE--1" target="3RRBa5ifjyfrIRJ2lBE--31" edge="1">
          <mxGeometry relative="1" as="geometry">
            <mxPoint x="230" y="210" as="targetPoint" />
          </mxGeometry>
        </mxCell>
        <mxCell id="3RRBa5ifjyfrIRJ2lBE--34" style="edgeStyle=orthogonalEdgeStyle;rounded=0;orthogonalLoop=1;jettySize=auto;html=1;entryX=0.5;entryY=0;entryDx=0;entryDy=0;" parent="1" source="3RRBa5ifjyfrIRJ2lBE--1" target="3RRBa5ifjyfrIRJ2lBE--33" edge="1">
          <mxGeometry relative="1" as="geometry" />
        </mxCell>
        <mxCell id="3RRBa5ifjyfrIRJ2lBE--49" value="1" style="edgeStyle=orthogonalEdgeStyle;rounded=0;orthogonalLoop=1;jettySize=auto;html=1;exitX=1;exitY=1;exitDx=0;exitDy=0;entryX=0.5;entryY=0;entryDx=0;entryDy=0;" parent="1" source="3RRBa5ifjyfrIRJ2lBE--1" target="3RRBa5ifjyfrIRJ2lBE--48" edge="1">
          <mxGeometry x="-0.0213" relative="1" as="geometry">
            <mxPoint as="offset" />
          </mxGeometry>
        </mxCell>
        <mxCell id="3RRBa5ifjyfrIRJ2lBE--76" style="edgeStyle=orthogonalEdgeStyle;rounded=0;orthogonalLoop=1;jettySize=auto;html=1;exitX=1;exitY=0.75;exitDx=0;exitDy=0;" parent="1" source="3RRBa5ifjyfrIRJ2lBE--1" edge="1">
          <mxGeometry relative="1" as="geometry">
            <mxPoint x="270" y="150" as="targetPoint" />
          </mxGeometry>
        </mxCell>
        <mxCell id="3RRBa5ifjyfrIRJ2lBE--81" value="1" style="edgeStyle=orthogonalEdgeStyle;rounded=0;orthogonalLoop=1;jettySize=auto;html=1;exitX=0;exitY=0.25;exitDx=0;exitDy=0;" parent="1" source="3RRBa5ifjyfrIRJ2lBE--1" target="3RRBa5ifjyfrIRJ2lBE--82" edge="1">
          <mxGeometry relative="1" as="geometry">
            <mxPoint x="-60" y="130" as="targetPoint" />
          </mxGeometry>
        </mxCell>
        <mxCell id="3RRBa5ifjyfrIRJ2lBE--1" value="user" style="whiteSpace=wrap;html=1;align=center;fillColor=#60a917;fontColor=#ffffff;strokeColor=#2D7600;" parent="1" vertex="1">
          <mxGeometry x="180" y="120" width="80" height="40" as="geometry" />
        </mxCell>
        <mxCell id="3RRBa5ifjyfrIRJ2lBE--10" value="1" style="edgeStyle=orthogonalEdgeStyle;rounded=0;orthogonalLoop=1;jettySize=auto;html=1;shape=link;" parent="1" source="3RRBa5ifjyfrIRJ2lBE--3" target="3RRBa5ifjyfrIRJ2lBE--9" edge="1">
          <mxGeometry relative="1" as="geometry">
            <mxPoint x="600" y="210" as="targetPoint" />
          </mxGeometry>
        </mxCell>
        <mxCell id="3RRBa5ifjyfrIRJ2lBE--36" style="edgeStyle=orthogonalEdgeStyle;rounded=0;orthogonalLoop=1;jettySize=auto;html=1;entryX=0.5;entryY=1;entryDx=0;entryDy=0;" parent="1" source="3RRBa5ifjyfrIRJ2lBE--3" target="3RRBa5ifjyfrIRJ2lBE--35" edge="1">
          <mxGeometry relative="1" as="geometry" />
        </mxCell>
        <mxCell id="3RRBa5ifjyfrIRJ2lBE--3" value="posts" style="rounded=1;arcSize=10;whiteSpace=wrap;html=1;align=center;fillColor=#60a917;fontColor=#ffffff;strokeColor=#2D7600;" parent="1" vertex="1">
          <mxGeometry x="550" y="120" width="100" height="40" as="geometry" />
        </mxCell>
        <mxCell id="3RRBa5ifjyfrIRJ2lBE--21" value="m" style="edgeStyle=orthogonalEdgeStyle;rounded=0;orthogonalLoop=1;jettySize=auto;html=1;entryX=1;entryY=0.5;entryDx=0;entryDy=0;" parent="1" source="3RRBa5ifjyfrIRJ2lBE--5" target="3RRBa5ifjyfrIRJ2lBE--19" edge="1">
          <mxGeometry relative="1" as="geometry" />
        </mxCell>
        <mxCell id="3RRBa5ifjyfrIRJ2lBE--85" value="ة" style="edgeStyle=orthogonalEdgeStyle;rounded=0;orthogonalLoop=1;jettySize=auto;html=1;entryX=0.5;entryY=1;entryDx=0;entryDy=0;" parent="1" source="3RRBa5ifjyfrIRJ2lBE--5" target="3RRBa5ifjyfrIRJ2lBE--82" edge="1">
          <mxGeometry relative="1" as="geometry" />
        </mxCell>
        <mxCell id="3RRBa5ifjyfrIRJ2lBE--94" value="ة" style="edgeLabel;html=1;align=center;verticalAlign=middle;resizable=0;points=[];" parent="3RRBa5ifjyfrIRJ2lBE--85" vertex="1" connectable="0">
          <mxGeometry x="0.1639" y="-3" relative="1" as="geometry">
            <mxPoint as="offset" />
          </mxGeometry>
        </mxCell>
        <mxCell id="3RRBa5ifjyfrIRJ2lBE--5" value="comments" style="rounded=1;arcSize=10;whiteSpace=wrap;html=1;align=center;fillColor=#60a917;fontColor=#ffffff;strokeColor=#2D7600;" parent="1" vertex="1">
          <mxGeometry x="190" y="340" width="100" height="40" as="geometry" />
        </mxCell>
        <mxCell id="3RRBa5ifjyfrIRJ2lBE--7" value="m" style="edgeStyle=orthogonalEdgeStyle;rounded=0;orthogonalLoop=1;jettySize=auto;html=1;" parent="1" source="3RRBa5ifjyfrIRJ2lBE--6" target="3RRBa5ifjyfrIRJ2lBE--3" edge="1">
          <mxGeometry relative="1" as="geometry" />
        </mxCell>
        <mxCell id="3RRBa5ifjyfrIRJ2lBE--8" value="m" style="edgeStyle=orthogonalEdgeStyle;rounded=0;orthogonalLoop=1;jettySize=auto;html=1;" parent="1" source="3RRBa5ifjyfrIRJ2lBE--6" target="3RRBa5ifjyfrIRJ2lBE--1" edge="1">
          <mxGeometry x="0.0476" relative="1" as="geometry">
            <mxPoint as="offset" />
          </mxGeometry>
        </mxCell>
        <mxCell id="gha2zWPfZQm9CeeMWS2i-1" value="" style="edgeStyle=orthogonalEdgeStyle;rounded=0;orthogonalLoop=1;jettySize=auto;html=1;shape=link;" edge="1" parent="1" source="3RRBa5ifjyfrIRJ2lBE--6" target="3RRBa5ifjyfrIRJ2lBE--3">
          <mxGeometry relative="1" as="geometry" />
        </mxCell>
        <mxCell id="3RRBa5ifjyfrIRJ2lBE--6" value="posted" style="shape=rhombus;double=1;perimeter=rhombusPerimeter;whiteSpace=wrap;html=1;align=center;" parent="1" vertex="1">
          <mxGeometry x="365" y="110" width="120" height="60" as="geometry" />
        </mxCell>
        <mxCell id="3RRBa5ifjyfrIRJ2lBE--11" value="m" style="edgeStyle=orthogonalEdgeStyle;rounded=0;orthogonalLoop=1;jettySize=auto;html=1;entryX=1;entryY=0.5;entryDx=0;entryDy=0;strokeColor=none;" parent="1" source="3RRBa5ifjyfrIRJ2lBE--9" target="3RRBa5ifjyfrIRJ2lBE--5" edge="1">
          <mxGeometry relative="1" as="geometry" />
        </mxCell>
        <mxCell id="3RRBa5ifjyfrIRJ2lBE--52" style="edgeStyle=orthogonalEdgeStyle;rounded=0;orthogonalLoop=1;jettySize=auto;html=1;" parent="1" source="3RRBa5ifjyfrIRJ2lBE--9" edge="1">
          <mxGeometry relative="1" as="geometry">
            <mxPoint x="280" y="360" as="targetPoint" />
          </mxGeometry>
        </mxCell>
        <mxCell id="3RRBa5ifjyfrIRJ2lBE--9" value="has comments" style="shape=rhombus;double=1;perimeter=rhombusPerimeter;whiteSpace=wrap;html=1;align=center;" parent="1" vertex="1">
          <mxGeometry x="440" y="290" width="120" height="60" as="geometry" />
        </mxCell>
        <mxCell id="3RRBa5ifjyfrIRJ2lBE--18" value="m" style="edgeStyle=orthogonalEdgeStyle;rounded=0;orthogonalLoop=1;jettySize=auto;html=1;entryX=0.5;entryY=0;entryDx=0;entryDy=0;" parent="1" source="3RRBa5ifjyfrIRJ2lBE--12" target="3RRBa5ifjyfrIRJ2lBE--1" edge="1">
          <mxGeometry relative="1" as="geometry">
            <mxPoint as="offset" />
          </mxGeometry>
        </mxCell>
        <mxCell id="3RRBa5ifjyfrIRJ2lBE--12" value="following" style="shape=rhombus;perimeter=rhombusPerimeter;whiteSpace=wrap;html=1;align=center;" parent="1" vertex="1">
          <mxGeometry x="-110" y="30" width="120" height="60" as="geometry" />
        </mxCell>
        <mxCell id="oWTwecO-nlmCpSqTafe5-1" value="m" style="edgeStyle=orthogonalEdgeStyle;rounded=0;orthogonalLoop=1;jettySize=auto;html=1;entryX=0.25;entryY=1;entryDx=0;entryDy=0;" edge="1" parent="1" source="3RRBa5ifjyfrIRJ2lBE--19" target="3RRBa5ifjyfrIRJ2lBE--1">
          <mxGeometry relative="1" as="geometry" />
        </mxCell>
        <mxCell id="3RRBa5ifjyfrIRJ2lBE--19" value="reply" style="shape=rhombus;double=1;perimeter=rhombusPerimeter;whiteSpace=wrap;html=1;align=center;" parent="1" vertex="1">
          <mxGeometry x="10" y="245" width="120" height="60" as="geometry" />
        </mxCell>
        <mxCell id="3RRBa5ifjyfrIRJ2lBE--23" value="user name" style="ellipse;whiteSpace=wrap;html=1;align=center;fillColor=#d80073;fontColor=#ffffff;strokeColor=#A50040;" parent="1" vertex="1">
          <mxGeometry x="310" y="30" width="100" height="40" as="geometry" />
        </mxCell>
        <mxCell id="3RRBa5ifjyfrIRJ2lBE--26" value="id" style="ellipse;whiteSpace=wrap;html=1;align=center;fillColor=#d80073;fontColor=#ffffff;strokeColor=#A50040;" parent="1" vertex="1">
          <mxGeometry x="220" width="100" height="40" as="geometry" />
        </mxCell>
        <mxCell id="3RRBa5ifjyfrIRJ2lBE--28" style="edgeStyle=orthogonalEdgeStyle;rounded=0;orthogonalLoop=1;jettySize=auto;html=1;entryX=0.612;entryY=-0.005;entryDx=0;entryDy=0;entryPerimeter=0;" parent="1" source="3RRBa5ifjyfrIRJ2lBE--26" target="3RRBa5ifjyfrIRJ2lBE--1" edge="1">
          <mxGeometry relative="1" as="geometry" />
        </mxCell>
        <mxCell id="3RRBa5ifjyfrIRJ2lBE--31" value="password" style="ellipse;whiteSpace=wrap;html=1;align=center;fillColor=#d80073;fontColor=#ffffff;strokeColor=#A50040;" parent="1" vertex="1">
          <mxGeometry x="60" y="170" width="100" height="40" as="geometry" />
        </mxCell>
        <mxCell id="3RRBa5ifjyfrIRJ2lBE--33" value="age" style="ellipse;whiteSpace=wrap;html=1;align=center;fillColor=#d80073;fontColor=#ffffff;strokeColor=#A50040;" parent="1" vertex="1">
          <mxGeometry x="200" y="210" width="100" height="40" as="geometry" />
        </mxCell>
        <mxCell id="3RRBa5ifjyfrIRJ2lBE--35" value="date" style="ellipse;whiteSpace=wrap;html=1;align=center;fillColor=#d80073;fontColor=#ffffff;strokeColor=#A50040;" parent="1" vertex="1">
          <mxGeometry x="550" y="30" width="100" height="40" as="geometry" />
        </mxCell>
        <mxCell id="3RRBa5ifjyfrIRJ2lBE--37" value="text_content" style="ellipse;whiteSpace=wrap;html=1;align=center;fillColor=#d80073;fontColor=#ffffff;strokeColor=#A50040;" parent="1" vertex="1">
          <mxGeometry x="680" y="50" width="90" height="40" as="geometry" />
        </mxCell>
        <mxCell id="3RRBa5ifjyfrIRJ2lBE--40" style="edgeStyle=orthogonalEdgeStyle;rounded=0;orthogonalLoop=1;jettySize=auto;html=1;entryX=1;entryY=0.75;entryDx=0;entryDy=0;" parent="1" source="3RRBa5ifjyfrIRJ2lBE--38" target="3RRBa5ifjyfrIRJ2lBE--3" edge="1">
          <mxGeometry relative="1" as="geometry" />
        </mxCell>
        <mxCell id="3RRBa5ifjyfrIRJ2lBE--38" value="image content" style="ellipse;whiteSpace=wrap;html=1;align=center;fillColor=#d80073;fontColor=#ffffff;strokeColor=#A50040;" parent="1" vertex="1">
          <mxGeometry x="680" y="100" width="100" height="40" as="geometry" />
        </mxCell>
        <mxCell id="3RRBa5ifjyfrIRJ2lBE--39" style="edgeStyle=orthogonalEdgeStyle;rounded=0;orthogonalLoop=1;jettySize=auto;html=1;entryX=0.872;entryY=-0.085;entryDx=0;entryDy=0;entryPerimeter=0;" parent="1" source="3RRBa5ifjyfrIRJ2lBE--37" target="3RRBa5ifjyfrIRJ2lBE--3" edge="1">
          <mxGeometry relative="1" as="geometry" />
        </mxCell>
        <mxCell id="3RRBa5ifjyfrIRJ2lBE--41" value="id" style="ellipse;whiteSpace=wrap;html=1;align=center;fontStyle=4;fillColor=#d80073;fontColor=#ffffff;strokeColor=#A50040;" parent="1" vertex="1">
          <mxGeometry x="680" y="170" width="100" height="40" as="geometry" />
        </mxCell>
        <mxCell id="3RRBa5ifjyfrIRJ2lBE--42" style="edgeStyle=orthogonalEdgeStyle;rounded=0;orthogonalLoop=1;jettySize=auto;html=1;entryX=0.896;entryY=1.035;entryDx=0;entryDy=0;entryPerimeter=0;" parent="1" source="3RRBa5ifjyfrIRJ2lBE--41" target="3RRBa5ifjyfrIRJ2lBE--3" edge="1">
          <mxGeometry relative="1" as="geometry" />
        </mxCell>
        <mxCell id="3RRBa5ifjyfrIRJ2lBE--43" value="date" style="ellipse;whiteSpace=wrap;html=1;align=center;fontStyle=4;fillColor=#d80073;fontColor=#ffffff;strokeColor=#A50040;" parent="1" vertex="1">
          <mxGeometry x="190" y="440" width="100" height="40" as="geometry" />
        </mxCell>
        <mxCell id="3RRBa5ifjyfrIRJ2lBE--51" style="edgeStyle=orthogonalEdgeStyle;rounded=0;orthogonalLoop=1;jettySize=auto;html=1;entryX=0;entryY=0.75;entryDx=0;entryDy=0;" parent="1" source="3RRBa5ifjyfrIRJ2lBE--44" target="3RRBa5ifjyfrIRJ2lBE--5" edge="1">
          <mxGeometry relative="1" as="geometry" />
        </mxCell>
        <mxCell id="3RRBa5ifjyfrIRJ2lBE--44" value="content" style="ellipse;whiteSpace=wrap;html=1;align=center;fontStyle=4;fillColor=#d80073;fontColor=#ffffff;strokeColor=#A50040;" parent="1" vertex="1">
          <mxGeometry x="-10" y="360" width="100" height="40" as="geometry" />
        </mxCell>
        <mxCell id="3RRBa5ifjyfrIRJ2lBE--47" style="edgeStyle=orthogonalEdgeStyle;rounded=0;orthogonalLoop=1;jettySize=auto;html=1;entryX=0;entryY=1;entryDx=0;entryDy=0;" parent="1" source="3RRBa5ifjyfrIRJ2lBE--45" target="3RRBa5ifjyfrIRJ2lBE--5" edge="1">
          <mxGeometry relative="1" as="geometry" />
        </mxCell>
        <mxCell id="3RRBa5ifjyfrIRJ2lBE--45" value="id" style="ellipse;whiteSpace=wrap;html=1;align=center;fontStyle=4;fillColor=#d80073;fontColor=#ffffff;strokeColor=#A50040;" parent="1" vertex="1">
          <mxGeometry x="30" y="430" width="100" height="40" as="geometry" />
        </mxCell>
        <mxCell id="3RRBa5ifjyfrIRJ2lBE--46" style="edgeStyle=orthogonalEdgeStyle;rounded=0;orthogonalLoop=1;jettySize=auto;html=1;entryX=0.58;entryY=0.915;entryDx=0;entryDy=0;entryPerimeter=0;" parent="1" source="3RRBa5ifjyfrIRJ2lBE--43" target="3RRBa5ifjyfrIRJ2lBE--5" edge="1">
          <mxGeometry relative="1" as="geometry" />
        </mxCell>
        <mxCell id="3RRBa5ifjyfrIRJ2lBE--48" value="commented" style="shape=rhombus;perimeter=rhombusPerimeter;whiteSpace=wrap;html=1;align=center;" parent="1" vertex="1">
          <mxGeometry x="365" y="230" width="120" height="60" as="geometry" />
        </mxCell>
        <mxCell id="3RRBa5ifjyfrIRJ2lBE--50" value="m" style="edgeStyle=orthogonalEdgeStyle;rounded=0;orthogonalLoop=1;jettySize=auto;html=1;entryX=0.852;entryY=-0.045;entryDx=0;entryDy=0;entryPerimeter=0;shape=link;" parent="1" source="3RRBa5ifjyfrIRJ2lBE--48" target="3RRBa5ifjyfrIRJ2lBE--5" edge="1">
          <mxGeometry relative="1" as="geometry" />
        </mxCell>
        <mxCell id="3RRBa5ifjyfrIRJ2lBE--74" style="edgeStyle=orthogonalEdgeStyle;rounded=0;orthogonalLoop=1;jettySize=auto;html=1;exitX=0;exitY=0;exitDx=0;exitDy=0;entryX=0.5;entryY=1;entryDx=0;entryDy=0;" parent="1" source="3RRBa5ifjyfrIRJ2lBE--67" target="3RRBa5ifjyfrIRJ2lBE--72" edge="1">
          <mxGeometry relative="1" as="geometry" />
        </mxCell>
        <mxCell id="3RRBa5ifjyfrIRJ2lBE--67" value="up vote" style="shape=rhombus;perimeter=rhombusPerimeter;whiteSpace=wrap;html=1;align=center;" parent="1" vertex="1">
          <mxGeometry x="440" y="-70" width="105" height="60" as="geometry" />
        </mxCell>
        <mxCell id="3RRBa5ifjyfrIRJ2lBE--69" value="m" style="edgeStyle=orthogonalEdgeStyle;rounded=0;orthogonalLoop=1;jettySize=auto;html=1;exitX=1;exitY=0.5;exitDx=0;exitDy=0;entryX=0.08;entryY=-0.025;entryDx=0;entryDy=0;entryPerimeter=0;" parent="1" source="3RRBa5ifjyfrIRJ2lBE--67" target="3RRBa5ifjyfrIRJ2lBE--3" edge="1">
          <mxGeometry relative="1" as="geometry" />
        </mxCell>
        <mxCell id="3RRBa5ifjyfrIRJ2lBE--72" value="date" style="ellipse;whiteSpace=wrap;html=1;align=center;fillColor=#d80073;fontColor=#ffffff;strokeColor=#A50040;" parent="1" vertex="1">
          <mxGeometry x="340" y="-160" width="100" height="40" as="geometry" />
        </mxCell>
        <mxCell id="3RRBa5ifjyfrIRJ2lBE--77" value="1" style="edgeStyle=orthogonalEdgeStyle;rounded=0;orthogonalLoop=1;jettySize=auto;html=1;entryX=0.125;entryY=0.035;entryDx=0;entryDy=0;entryPerimeter=0;" parent="1" source="3RRBa5ifjyfrIRJ2lBE--67" target="3RRBa5ifjyfrIRJ2lBE--1" edge="1">
          <mxGeometry relative="1" as="geometry" />
        </mxCell>
        <mxCell id="3RRBa5ifjyfrIRJ2lBE--82" value="up vote" style="shape=rhombus;perimeter=rhombusPerimeter;whiteSpace=wrap;html=1;align=center;" parent="1" vertex="1">
          <mxGeometry x="-120" y="100" width="120" height="60" as="geometry" />
        </mxCell>
        <mxCell id="3RRBa5ifjyfrIRJ2lBE--92" style="edgeStyle=orthogonalEdgeStyle;rounded=0;orthogonalLoop=1;jettySize=auto;html=1;entryX=0;entryY=0.5;entryDx=0;entryDy=0;" parent="1" source="3RRBa5ifjyfrIRJ2lBE--86" target="3RRBa5ifjyfrIRJ2lBE--82" edge="1">
          <mxGeometry relative="1" as="geometry" />
        </mxCell>
        <mxCell id="3RRBa5ifjyfrIRJ2lBE--86" value="date" style="ellipse;whiteSpace=wrap;html=1;align=center;fillColor=#d80073;fontColor=#ffffff;strokeColor=#A50040;" parent="1" vertex="1">
          <mxGeometry x="-250" y="50" width="100" height="40" as="geometry" />
        </mxCell>
        <mxCell id="3RRBa5ifjyfrIRJ2lBE--95" value="m" style="text;strokeColor=none;fillColor=none;spacingLeft=4;spacingRight=4;overflow=hidden;rotatable=0;points=[[0,0.5],[1,0.5]];portConstraint=eastwest;fontSize=12;whiteSpace=wrap;html=1;" parent="1" vertex="1">
          <mxGeometry x="-90" y="260" width="40" height="30" as="geometry" />
        </mxCell>
      </root>
    </mxGraphModel>
  </diagram>
  <diagram id="Yn746EnxfipcI4BSq0CS" name="Page-2">
    <mxGraphModel dx="975" dy="620" grid="1" gridSize="10" guides="1" tooltips="1" connect="1" arrows="1" fold="1" page="1" pageScale="1" pageWidth="850" pageHeight="1100" math="0" shadow="0">
      <root>
        <mxCell id="0" />
        <mxCell id="1" parent="0" />
        <mxCell id="nkIInVx1HYtHLgI14Pll-1" value="m" style="edgeStyle=orthogonalEdgeStyle;rounded=0;orthogonalLoop=1;jettySize=auto;html=1;entryX=1;entryY=0.5;entryDx=0;entryDy=0;dashed=1;" edge="1" parent="1" source="nkIInVx1HYtHLgI14Pll-8" target="nkIInVx1HYtHLgI14Pll-24">
          <mxGeometry relative="1" as="geometry" />
        </mxCell>
        <mxCell id="nkIInVx1HYtHLgI14Pll-2" style="edgeStyle=orthogonalEdgeStyle;rounded=0;orthogonalLoop=1;jettySize=auto;html=1;exitX=0.75;exitY=0;exitDx=0;exitDy=0;entryX=0.5;entryY=1;entryDx=0;entryDy=0;" edge="1" parent="1" source="nkIInVx1HYtHLgI14Pll-8" target="nkIInVx1HYtHLgI14Pll-27">
          <mxGeometry relative="1" as="geometry" />
        </mxCell>
        <mxCell id="nkIInVx1HYtHLgI14Pll-3" style="edgeStyle=orthogonalEdgeStyle;rounded=0;orthogonalLoop=1;jettySize=auto;html=1;entryX=1;entryY=0.75;entryDx=0;entryDy=0;entryPerimeter=0;" edge="1" parent="1" source="nkIInVx1HYtHLgI14Pll-8" target="nkIInVx1HYtHLgI14Pll-30">
          <mxGeometry relative="1" as="geometry">
            <mxPoint x="760" y="680" as="targetPoint" />
          </mxGeometry>
        </mxCell>
        <mxCell id="nkIInVx1HYtHLgI14Pll-4" style="edgeStyle=orthogonalEdgeStyle;rounded=0;orthogonalLoop=1;jettySize=auto;html=1;entryX=0.5;entryY=0;entryDx=0;entryDy=0;" edge="1" parent="1" source="nkIInVx1HYtHLgI14Pll-8" target="nkIInVx1HYtHLgI14Pll-31">
          <mxGeometry relative="1" as="geometry" />
        </mxCell>
        <mxCell id="nkIInVx1HYtHLgI14Pll-5" value="1" style="rounded=0;orthogonalLoop=1;jettySize=auto;html=1;exitX=1;exitY=1;exitDx=0;exitDy=0;dashed=1;" edge="1" parent="1" source="nkIInVx1HYtHLgI14Pll-8" target="nkIInVx1HYtHLgI14Pll-45">
          <mxGeometry x="-0.0213" relative="1" as="geometry">
            <mxPoint as="offset" />
          </mxGeometry>
        </mxCell>
        <mxCell id="nkIInVx1HYtHLgI14Pll-6" style="edgeStyle=orthogonalEdgeStyle;rounded=0;orthogonalLoop=1;jettySize=auto;html=1;exitX=1;exitY=0.75;exitDx=0;exitDy=0;" edge="1" parent="1" source="nkIInVx1HYtHLgI14Pll-8">
          <mxGeometry relative="1" as="geometry">
            <mxPoint x="800" y="620" as="targetPoint" />
          </mxGeometry>
        </mxCell>
        <mxCell id="nkIInVx1HYtHLgI14Pll-7" value="1" style="edgeStyle=orthogonalEdgeStyle;rounded=0;orthogonalLoop=1;jettySize=auto;html=1;exitX=0;exitY=0.25;exitDx=0;exitDy=0;dashed=1;" edge="1" parent="1" source="nkIInVx1HYtHLgI14Pll-8" target="nkIInVx1HYtHLgI14Pll-52">
          <mxGeometry relative="1" as="geometry">
            <mxPoint x="470" y="600" as="targetPoint" />
          </mxGeometry>
        </mxCell>
        <mxCell id="nkIInVx1HYtHLgI14Pll-8" value="user" style="whiteSpace=wrap;html=1;align=center;fillColor=#60a917;fontColor=#ffffff;strokeColor=#2D7600;" vertex="1" parent="1">
          <mxGeometry x="710" y="590" width="80" height="40" as="geometry" />
        </mxCell>
        <mxCell id="nkIInVx1HYtHLgI14Pll-9" value="1" style="rounded=0;orthogonalLoop=1;jettySize=auto;html=1;shape=link;" edge="1" parent="1" source="nkIInVx1HYtHLgI14Pll-11" target="nkIInVx1HYtHLgI14Pll-45">
          <mxGeometry x="-0.1027" relative="1" as="geometry">
            <mxPoint x="1030" y="760" as="targetPoint" />
            <mxPoint as="offset" />
          </mxGeometry>
        </mxCell>
        <mxCell id="nkIInVx1HYtHLgI14Pll-10" style="edgeStyle=orthogonalEdgeStyle;rounded=0;orthogonalLoop=1;jettySize=auto;html=1;entryX=0.5;entryY=1;entryDx=0;entryDy=0;" edge="1" parent="1" source="nkIInVx1HYtHLgI14Pll-11" target="nkIInVx1HYtHLgI14Pll-32">
          <mxGeometry relative="1" as="geometry" />
        </mxCell>
        <mxCell id="nkIInVx1HYtHLgI14Pll-11" value="posts" style="rounded=1;arcSize=10;whiteSpace=wrap;html=1;align=center;fillColor=#60a917;fontColor=#ffffff;strokeColor=#2D7600;" vertex="1" parent="1">
          <mxGeometry x="1080" y="590" width="100" height="40" as="geometry" />
        </mxCell>
        <mxCell id="nkIInVx1HYtHLgI14Pll-13" value="ة" style="edgeStyle=orthogonalEdgeStyle;rounded=0;orthogonalLoop=1;jettySize=auto;html=1;entryX=0.5;entryY=1;entryDx=0;entryDy=0;dashed=1;" edge="1" parent="1" target="nkIInVx1HYtHLgI14Pll-52">
          <mxGeometry relative="1" as="geometry">
            <mxPoint x="720" y="830" as="sourcePoint" />
          </mxGeometry>
        </mxCell>
        <mxCell id="nkIInVx1HYtHLgI14Pll-14" value="ة" style="edgeLabel;html=1;align=center;verticalAlign=middle;resizable=0;points=[];" vertex="1" connectable="0" parent="nkIInVx1HYtHLgI14Pll-13">
          <mxGeometry x="0.1639" y="-3" relative="1" as="geometry">
            <mxPoint as="offset" />
          </mxGeometry>
        </mxCell>
        <mxCell id="nkIInVx1HYtHLgI14Pll-16" value="m" style="edgeStyle=orthogonalEdgeStyle;rounded=0;orthogonalLoop=1;jettySize=auto;html=1;dashed=1;" edge="1" parent="1" source="nkIInVx1HYtHLgI14Pll-19" target="nkIInVx1HYtHLgI14Pll-11">
          <mxGeometry relative="1" as="geometry" />
        </mxCell>
        <mxCell id="nkIInVx1HYtHLgI14Pll-17" value="m" style="edgeStyle=orthogonalEdgeStyle;rounded=0;orthogonalLoop=1;jettySize=auto;html=1;dashed=1;" edge="1" parent="1" source="nkIInVx1HYtHLgI14Pll-19" target="nkIInVx1HYtHLgI14Pll-8">
          <mxGeometry x="0.0476" relative="1" as="geometry">
            <mxPoint as="offset" />
          </mxGeometry>
        </mxCell>
        <mxCell id="nkIInVx1HYtHLgI14Pll-18" value="" style="edgeStyle=orthogonalEdgeStyle;rounded=0;orthogonalLoop=1;jettySize=auto;html=1;shape=link;" edge="1" parent="1" source="nkIInVx1HYtHLgI14Pll-19" target="nkIInVx1HYtHLgI14Pll-11">
          <mxGeometry relative="1" as="geometry" />
        </mxCell>
        <mxCell id="nkIInVx1HYtHLgI14Pll-19" value="posted" style="shape=rhombus;double=1;perimeter=rhombusPerimeter;whiteSpace=wrap;html=1;align=center;" vertex="1" parent="1">
          <mxGeometry x="895" y="580" width="120" height="60" as="geometry" />
        </mxCell>
        <mxCell id="nkIInVx1HYtHLgI14Pll-20" value="m" style="edgeStyle=orthogonalEdgeStyle;rounded=0;orthogonalLoop=1;jettySize=auto;html=1;entryX=1;entryY=0.5;entryDx=0;entryDy=0;strokeColor=none;dashed=1;" edge="1" parent="1">
          <mxGeometry relative="1" as="geometry">
            <mxPoint x="970" y="790" as="sourcePoint" />
            <mxPoint x="820" y="830" as="targetPoint" />
          </mxGeometry>
        </mxCell>
        <mxCell id="nkIInVx1HYtHLgI14Pll-23" value="m" style="edgeStyle=orthogonalEdgeStyle;rounded=0;orthogonalLoop=1;jettySize=auto;html=1;entryX=0.5;entryY=0;entryDx=0;entryDy=0;dashed=1;" edge="1" parent="1" source="nkIInVx1HYtHLgI14Pll-24" target="nkIInVx1HYtHLgI14Pll-8">
          <mxGeometry relative="1" as="geometry" />
        </mxCell>
        <mxCell id="nkIInVx1HYtHLgI14Pll-24" value="following" style="shape=rhombus;perimeter=rhombusPerimeter;whiteSpace=wrap;html=1;align=center;" vertex="1" parent="1">
          <mxGeometry x="420" y="500" width="120" height="60" as="geometry" />
        </mxCell>
        <mxCell id="nkIInVx1HYtHLgI14Pll-27" value="user name" style="ellipse;whiteSpace=wrap;html=1;align=center;fillColor=#d80073;fontColor=#ffffff;strokeColor=#A50040;" vertex="1" parent="1">
          <mxGeometry x="840" y="500" width="100" height="40" as="geometry" />
        </mxCell>
        <mxCell id="nkIInVx1HYtHLgI14Pll-28" value="id" style="ellipse;whiteSpace=wrap;html=1;align=center;fillColor=#d80073;fontColor=#ffffff;strokeColor=#A50040;" vertex="1" parent="1">
          <mxGeometry x="750" y="470" width="100" height="40" as="geometry" />
        </mxCell>
        <mxCell id="nkIInVx1HYtHLgI14Pll-29" style="edgeStyle=orthogonalEdgeStyle;rounded=0;orthogonalLoop=1;jettySize=auto;html=1;entryX=0.612;entryY=-0.005;entryDx=0;entryDy=0;entryPerimeter=0;" edge="1" parent="1" source="nkIInVx1HYtHLgI14Pll-28" target="nkIInVx1HYtHLgI14Pll-8">
          <mxGeometry relative="1" as="geometry" />
        </mxCell>
        <mxCell id="nkIInVx1HYtHLgI14Pll-30" value="password" style="ellipse;whiteSpace=wrap;html=1;align=center;fillColor=#d80073;fontColor=#ffffff;strokeColor=#A50040;" vertex="1" parent="1">
          <mxGeometry x="590" y="640" width="100" height="40" as="geometry" />
        </mxCell>
        <mxCell id="nkIInVx1HYtHLgI14Pll-31" value="age" style="ellipse;whiteSpace=wrap;html=1;align=center;fillColor=#d80073;fontColor=#ffffff;strokeColor=#A50040;" vertex="1" parent="1">
          <mxGeometry x="710" y="680" width="100" height="40" as="geometry" />
        </mxCell>
        <mxCell id="nkIInVx1HYtHLgI14Pll-32" value="date" style="ellipse;whiteSpace=wrap;html=1;align=center;fillColor=#d80073;fontColor=#ffffff;strokeColor=#A50040;" vertex="1" parent="1">
          <mxGeometry x="1080" y="500" width="100" height="40" as="geometry" />
        </mxCell>
        <mxCell id="nkIInVx1HYtHLgI14Pll-33" value="text_content" style="ellipse;whiteSpace=wrap;html=1;align=center;fillColor=#d80073;fontColor=#ffffff;strokeColor=#A50040;" vertex="1" parent="1">
          <mxGeometry x="1210" y="520" width="90" height="40" as="geometry" />
        </mxCell>
        <mxCell id="nkIInVx1HYtHLgI14Pll-34" style="edgeStyle=orthogonalEdgeStyle;rounded=0;orthogonalLoop=1;jettySize=auto;html=1;entryX=1;entryY=0.75;entryDx=0;entryDy=0;" edge="1" parent="1" source="nkIInVx1HYtHLgI14Pll-35" target="nkIInVx1HYtHLgI14Pll-11">
          <mxGeometry relative="1" as="geometry" />
        </mxCell>
        <mxCell id="nkIInVx1HYtHLgI14Pll-35" value="image content" style="ellipse;whiteSpace=wrap;html=1;align=center;fillColor=#d80073;fontColor=#ffffff;strokeColor=#A50040;" vertex="1" parent="1">
          <mxGeometry x="1210" y="570" width="100" height="40" as="geometry" />
        </mxCell>
        <mxCell id="nkIInVx1HYtHLgI14Pll-36" style="edgeStyle=orthogonalEdgeStyle;rounded=0;orthogonalLoop=1;jettySize=auto;html=1;entryX=0.872;entryY=-0.085;entryDx=0;entryDy=0;entryPerimeter=0;" edge="1" parent="1" source="nkIInVx1HYtHLgI14Pll-33" target="nkIInVx1HYtHLgI14Pll-11">
          <mxGeometry relative="1" as="geometry" />
        </mxCell>
        <mxCell id="nkIInVx1HYtHLgI14Pll-37" value="id" style="ellipse;whiteSpace=wrap;html=1;align=center;fontStyle=4;fillColor=#d80073;fontColor=#ffffff;strokeColor=#A50040;" vertex="1" parent="1">
          <mxGeometry x="1210" y="640" width="100" height="40" as="geometry" />
        </mxCell>
        <mxCell id="nkIInVx1HYtHLgI14Pll-38" style="edgeStyle=orthogonalEdgeStyle;rounded=0;orthogonalLoop=1;jettySize=auto;html=1;entryX=0.896;entryY=1.035;entryDx=0;entryDy=0;entryPerimeter=0;" edge="1" parent="1" source="nkIInVx1HYtHLgI14Pll-37" target="nkIInVx1HYtHLgI14Pll-11">
          <mxGeometry relative="1" as="geometry" />
        </mxCell>
        <mxCell id="nkIInVx1HYtHLgI14Pll-56" style="edgeStyle=orthogonalEdgeStyle;rounded=0;orthogonalLoop=1;jettySize=auto;html=1;entryX=1;entryY=0.5;entryDx=0;entryDy=0;" edge="1" parent="1" source="nkIInVx1HYtHLgI14Pll-39" target="nkIInVx1HYtHLgI14Pll-45">
          <mxGeometry relative="1" as="geometry" />
        </mxCell>
        <mxCell id="nkIInVx1HYtHLgI14Pll-39" value="date" style="ellipse;whiteSpace=wrap;html=1;align=center;fontStyle=4;fillColor=#d80073;fontColor=#ffffff;strokeColor=#A50040;" vertex="1" parent="1">
          <mxGeometry x="990" y="810" width="100" height="40" as="geometry" />
        </mxCell>
        <mxCell id="nkIInVx1HYtHLgI14Pll-58" style="edgeStyle=orthogonalEdgeStyle;rounded=0;orthogonalLoop=1;jettySize=auto;html=1;entryX=0;entryY=0.5;entryDx=0;entryDy=0;" edge="1" parent="1" source="nkIInVx1HYtHLgI14Pll-41" target="nkIInVx1HYtHLgI14Pll-45">
          <mxGeometry relative="1" as="geometry">
            <Array as="points">
              <mxPoint x="760" y="840" />
              <mxPoint x="840" y="840" />
              <mxPoint x="840" y="790" />
              <mxPoint x="875" y="790" />
              <mxPoint x="875" y="730" />
            </Array>
          </mxGeometry>
        </mxCell>
        <mxCell id="nkIInVx1HYtHLgI14Pll-41" value="content" style="ellipse;whiteSpace=wrap;html=1;align=center;fontStyle=4;fillColor=#d80073;fontColor=#ffffff;strokeColor=#A50040;" vertex="1" parent="1">
          <mxGeometry x="710" y="780" width="100" height="40" as="geometry" />
        </mxCell>
        <mxCell id="nkIInVx1HYtHLgI14Pll-57" style="edgeStyle=orthogonalEdgeStyle;rounded=0;orthogonalLoop=1;jettySize=auto;html=1;entryX=0.5;entryY=1;entryDx=0;entryDy=0;" edge="1" parent="1" source="nkIInVx1HYtHLgI14Pll-43" target="nkIInVx1HYtHLgI14Pll-45">
          <mxGeometry relative="1" as="geometry" />
        </mxCell>
        <mxCell id="nkIInVx1HYtHLgI14Pll-43" value="id" style="ellipse;whiteSpace=wrap;html=1;align=center;fontStyle=4;fillColor=#d80073;fontColor=#ffffff;strokeColor=#A50040;" vertex="1" parent="1">
          <mxGeometry x="870" y="830" width="100" height="40" as="geometry" />
        </mxCell>
        <mxCell id="nkIInVx1HYtHLgI14Pll-45" value="commented" style="shape=rhombus;perimeter=rhombusPerimeter;whiteSpace=wrap;html=1;align=center;" vertex="1" parent="1">
          <mxGeometry x="895" y="700" width="120" height="60" as="geometry" />
        </mxCell>
        <mxCell id="nkIInVx1HYtHLgI14Pll-47" style="edgeStyle=orthogonalEdgeStyle;rounded=0;orthogonalLoop=1;jettySize=auto;html=1;exitX=0;exitY=0;exitDx=0;exitDy=0;entryX=0.5;entryY=1;entryDx=0;entryDy=0;" edge="1" parent="1" source="nkIInVx1HYtHLgI14Pll-48" target="nkIInVx1HYtHLgI14Pll-50">
          <mxGeometry relative="1" as="geometry" />
        </mxCell>
        <mxCell id="nkIInVx1HYtHLgI14Pll-48" value="up vote" style="shape=rhombus;perimeter=rhombusPerimeter;whiteSpace=wrap;html=1;align=center;" vertex="1" parent="1">
          <mxGeometry x="970" y="400" width="105" height="60" as="geometry" />
        </mxCell>
        <mxCell id="nkIInVx1HYtHLgI14Pll-49" value="m" style="edgeStyle=orthogonalEdgeStyle;rounded=0;orthogonalLoop=1;jettySize=auto;html=1;exitX=1;exitY=0.5;exitDx=0;exitDy=0;entryX=0.08;entryY=-0.025;entryDx=0;entryDy=0;entryPerimeter=0;dashed=1;" edge="1" parent="1" source="nkIInVx1HYtHLgI14Pll-48" target="nkIInVx1HYtHLgI14Pll-11">
          <mxGeometry relative="1" as="geometry">
            <Array as="points">
              <mxPoint x="1070" y="460" />
              <mxPoint x="1070" y="589" />
            </Array>
          </mxGeometry>
        </mxCell>
        <mxCell id="nkIInVx1HYtHLgI14Pll-50" value="date" style="ellipse;whiteSpace=wrap;html=1;align=center;fillColor=#d80073;fontColor=#ffffff;strokeColor=#A50040;" vertex="1" parent="1">
          <mxGeometry x="870" y="310" width="100" height="40" as="geometry" />
        </mxCell>
        <mxCell id="nkIInVx1HYtHLgI14Pll-51" value="1" style="edgeStyle=orthogonalEdgeStyle;rounded=0;orthogonalLoop=1;jettySize=auto;html=1;entryX=0.125;entryY=0.035;entryDx=0;entryDy=0;entryPerimeter=0;dashed=1;" edge="1" parent="1" source="nkIInVx1HYtHLgI14Pll-48" target="nkIInVx1HYtHLgI14Pll-8">
          <mxGeometry relative="1" as="geometry" />
        </mxCell>
        <mxCell id="nkIInVx1HYtHLgI14Pll-52" value="up vote" style="shape=rhombus;perimeter=rhombusPerimeter;whiteSpace=wrap;html=1;align=center;" vertex="1" parent="1">
          <mxGeometry x="410" y="570" width="120" height="60" as="geometry" />
        </mxCell>
        <mxCell id="nkIInVx1HYtHLgI14Pll-53" style="edgeStyle=orthogonalEdgeStyle;rounded=0;orthogonalLoop=1;jettySize=auto;html=1;entryX=0;entryY=0.5;entryDx=0;entryDy=0;" edge="1" parent="1" source="nkIInVx1HYtHLgI14Pll-54" target="nkIInVx1HYtHLgI14Pll-52">
          <mxGeometry relative="1" as="geometry" />
        </mxCell>
        <mxCell id="nkIInVx1HYtHLgI14Pll-54" value="date" style="ellipse;whiteSpace=wrap;html=1;align=center;fillColor=#d80073;fontColor=#ffffff;strokeColor=#A50040;" vertex="1" parent="1">
          <mxGeometry x="280" y="520" width="100" height="40" as="geometry" />
        </mxCell>
        <mxCell id="nkIInVx1HYtHLgI14Pll-55" value="m" style="text;strokeColor=none;fillColor=none;spacingLeft=4;spacingRight=4;overflow=hidden;rotatable=0;points=[[0,0.5],[1,0.5]];portConstraint=eastwest;fontSize=12;whiteSpace=wrap;html=1;" vertex="1" parent="1">
          <mxGeometry x="440" y="730" width="40" height="30" as="geometry" />
        </mxCell>
        <mxCell id="nkIInVx1HYtHLgI14Pll-60" style="edgeStyle=orthogonalEdgeStyle;rounded=0;orthogonalLoop=1;jettySize=auto;html=1;entryX=1;entryY=1;entryDx=0;entryDy=0;" edge="1" parent="1" target="nkIInVx1HYtHLgI14Pll-45">
          <mxGeometry relative="1" as="geometry">
            <mxPoint x="1110" y="790" as="sourcePoint" />
          </mxGeometry>
        </mxCell>
        <mxCell id="nkIInVx1HYtHLgI14Pll-61" value="replay" style="ellipse;shape=doubleEllipse;margin=3;whiteSpace=wrap;html=1;align=center;fillColor=#d80073;fontColor=#ffffff;strokeColor=#A50040;" vertex="1" parent="1">
          <mxGeometry x="1110" y="770" width="100" height="40" as="geometry" />
        </mxCell>
      </root>
    </mxGraphModel>
  </diagram>
</mxfile>
